<svg xmlns="http://www.w3.org/2000/svg" xmlns:xlink="http://www.w3.org/1999/xlink" version="1.1" id="Layer_1" x="0px" y="0px" enable-background="new 0 0 169 197" xml:space="preserve" viewBox="1 1 169 197">
<path fill="none" opacity="1.000000" stroke="none" d=" M118.000000,198.000000   C78.666672,198.000000 39.833340,198.000000 1.000005,198.000000   C1.000003,132.333344 1.000003,66.666679 1.000002,1.000014   C57.333324,1.000009 113.666649,1.000009 169.999969,1.000005   C169.999985,66.666649 169.999985,132.333298 170.000000,197.999969   C152.833328,198.000000 135.666672,198.000000 118.000000,198.000000  M117.379311,133.180740   C118.868332,135.968216 120.331131,138.770065 121.851486,141.540344   C125.785507,148.708603 132.170410,151.033966 138.399185,147.595688   C144.467392,144.246048 146.150009,137.293793 142.486862,130.323807   C137.071915,120.020668 131.599625,109.747643 126.143906,99.465973   C115.467110,79.344856 104.757095,59.241276 94.127640,39.095192   C91.922691,34.916138 89.174835,31.506353 84.140564,31.062340   C79.768181,30.676704 75.939125,31.837082 73.288071,35.721649   C70.255737,40.164886 70.215469,44.543808 72.757942,49.297482   C87.578667,77.007843 102.296341,104.773308 117.379311,133.180740  M35.896461,105.353615   C31.357605,113.843689 26.711216,122.278542 22.313866,130.841278   C18.786066,137.710800 20.957708,144.979691 27.129530,147.960480   C33.297375,150.939362 39.478378,148.632751 43.274891,141.579315   C53.029396,123.456696 62.700977,105.288902 72.300186,87.083527   C75.800026,80.445908 74.026482,73.156998 68.456108,70.039337   C62.329544,66.610382 55.237045,69.076584 51.422653,76.115990   C46.282970,85.601196 41.255234,95.147057 35.896461,105.353615  M92.080894,112.572655   C89.355927,111.033913 86.787094,108.745941 83.868217,108.137642   C79.813774,107.292686 75.512268,108.049995 72.764557,111.806015   C70.164322,115.360451 68.855087,119.249123 70.818161,123.699821   C73.548645,129.890411 81.245338,133.446686 86.787041,130.641098   C94.149796,126.913612 97.093056,121.229301 92.080894,112.572655  z"/>
<path fill="#FFFFFF" opacity="1.000000" stroke="none" d=" M117.214066,132.850449   C102.296341,104.773308 87.578667,77.007843 72.757942,49.297482   C70.215469,44.543808 70.255737,40.164886 73.288071,35.721649   C75.939125,31.837082 79.768181,30.676704 84.140564,31.062340   C89.174835,31.506353 91.922691,34.916138 94.127640,39.095192   C104.757095,59.241276 115.467110,79.344856 126.143906,99.465973   C131.599625,109.747643 137.071915,120.020668 142.486862,130.323807   C146.150009,137.293793 144.467392,144.246048 138.399185,147.595688   C132.170410,151.033966 125.785507,148.708603 121.851486,141.540344   C120.331131,138.770065 118.868332,135.968216 117.214066,132.850449  z"/>
<path fill="#FFFFFF" opacity="1.000000" stroke="none" d=" M36.037956,105.010254   C41.255234,95.147057 46.282970,85.601196 51.422653,76.115990   C55.237045,69.076584 62.329544,66.610382 68.456108,70.039337   C74.026482,73.156998 75.800026,80.445908 72.300186,87.083527   C62.700977,105.288902 53.029396,123.456696 43.274891,141.579315   C39.478378,148.632751 33.297375,150.939362 27.129530,147.960480   C20.957708,144.979691 18.786066,137.710800 22.313866,130.841278   C26.711216,122.278542 31.357605,113.843689 36.037956,105.010254  z"/>
<path fill="#FFFFFF" opacity="1.000000" stroke="none" d=" M92.379356,112.826393   C97.093056,121.229301 94.149796,126.913612 86.787041,130.641098   C81.245338,133.446686 73.548645,129.890411 70.818161,123.699821   C68.855087,119.249123 70.164322,115.360451 72.764557,111.806015   C75.512268,108.049995 79.813774,107.292686 83.868217,108.137642   C86.787094,108.745941 89.355927,111.033913 92.379356,112.826393  z"/>
</svg>
